<svg width="48" height="48" viewBox="0 0 48 48" fill="none" xmlns="http://www.w3.org/2000/svg">
<rect width="48" height="48" rx="4" fill="#0A2126"/>
<path d="M14.0714 31H4.79141C4.53807 31 4.35141 30.9467 4.23141 30.84C4.12474 30.72 4.07141 30.5333 4.07141 30.28V17.32C4.07141 17.0667 4.12474 16.8867 4.23141 16.78C4.35141 16.66 4.53807 16.6 4.79141 16.6H14.0714C14.3247 16.6 14.5047 16.66 14.6114 16.78C14.7314 16.8867 14.7914 17.0667 14.7914 17.32V19.66C14.7914 19.9133 14.7314 20.1 14.6114 20.22C14.5047 20.3267 14.3247 20.38 14.0714 20.38H8.55141V21.92H12.4514C12.7047 21.92 12.8847 21.98 12.9914 22.1C13.1114 22.2067 13.1714 22.3867 13.1714 22.64V24.78C13.1714 25.0333 13.1114 25.22 12.9914 25.34C12.8847 25.4467 12.7047 25.5 12.4514 25.5H8.55141V27.22H14.0714C14.3247 27.22 14.5047 27.28 14.6114 27.4C14.7314 27.5067 14.7914 27.6867 14.7914 27.94V30.28C14.7914 30.5333 14.7314 30.72 14.6114 30.84C14.5047 30.9467 14.3247 31 14.0714 31ZM25.6773 31H20.4773C20.224 31 20.0107 30.9533 19.8373 30.86C19.6773 30.7667 19.5507 30.5933 19.4573 30.34L17.4973 25.44C17.3773 25.1467 17.2773 24.8933 17.1973 24.68C17.1173 24.4533 17.0507 24.24 16.9973 24.04C16.944 23.84 16.904 23.6333 16.8773 23.42C16.864 23.1933 16.8573 22.92 16.8573 22.6V17.32C16.8573 17.0667 16.9107 16.8867 17.0173 16.78C17.1373 16.66 17.324 16.6 17.5773 16.6H20.7573C21.0107 16.6 21.204 16.66 21.3373 16.78C21.4707 16.8867 21.5373 17.0667 21.5373 17.32V22.84C21.5373 22.9733 21.5507 23.1067 21.5773 23.24C21.604 23.3733 21.644 23.5133 21.6973 23.66L22.6373 26.46C22.6773 26.5933 22.724 26.6867 22.7773 26.74C22.8307 26.78 22.9107 26.8 23.0173 26.8H23.2373C23.344 26.8 23.424 26.78 23.4773 26.74C23.5307 26.6867 23.5773 26.5933 23.6173 26.46L24.5573 23.64C24.6107 23.4933 24.6507 23.3533 24.6773 23.22C24.704 23.0867 24.7173 22.9533 24.7173 22.82V17.32C24.7173 17.0667 24.7707 16.8867 24.8773 16.78C24.9973 16.66 25.184 16.6 25.4373 16.6H28.5773C28.8307 16.6 29.0107 16.66 29.1173 16.78C29.2373 16.8867 29.2973 17.0667 29.2973 17.32V22.6C29.2973 22.92 29.284 23.1933 29.2573 23.42C29.244 23.6333 29.2107 23.84 29.1573 24.04C29.104 24.24 29.0373 24.4533 28.9573 24.68C28.8773 24.8933 28.7773 25.1467 28.6573 25.44L26.6973 30.34C26.604 30.5933 26.4707 30.7667 26.2973 30.86C26.1373 30.9533 25.9307 31 25.6773 31ZM39.2267 31H32.4867C32.2334 31 32.0467 30.9467 31.9267 30.84C31.8201 30.72 31.7667 30.5333 31.7667 30.28V17.32C31.7667 17.0667 31.8201 16.8867 31.9267 16.78C32.0467 16.66 32.2334 16.6 32.4867 16.6H39.2267C40.8934 16.6 42.1267 16.9333 42.9267 17.6C43.7401 18.2667 44.1467 19.2933 44.1467 20.68V26.92C44.1467 28.3067 43.7401 29.3333 42.9267 30C42.1267 30.6667 40.8934 31 39.2267 31ZM36.3067 20.42V27.22H38.6867C39.0067 27.22 39.2401 27.14 39.3867 26.98C39.5467 26.82 39.6267 26.5733 39.6267 26.24V21.38C39.6267 21.0467 39.5467 20.8067 39.3867 20.66C39.2401 20.5 39.0067 20.42 38.6867 20.42H36.3067Z" fill="#D74CEE"/>
</svg>
