<svg width="48" height="48" viewBox="0 0 48 48" fill="none" xmlns="http://www.w3.org/2000/svg">
<path d="M0 4C0 1.79086 1.79086 0 4 0H44C46.2091 0 48 1.79086 48 4V44C48 46.2091 46.2091 48 44 48H4C1.79086 48 0 46.2091 0 44V4Z" fill="#0A2126"/>
<path d="M19.0922 32.8H16.1922C15.9389 32.8 15.7522 32.74 15.6322 32.62C15.5255 32.5133 15.4722 32.3333 15.4722 32.08V31H12.7322C12.4789 31 12.2922 30.9467 12.1722 30.84C12.0655 30.72 12.0122 30.5333 12.0122 30.28V27.94C12.0122 27.6867 12.0655 27.5067 12.1722 27.4C12.2922 27.28 12.4789 27.22 12.7322 27.22H18.1122C18.2855 27.22 18.4122 27.1667 18.4922 27.06C18.5855 26.94 18.6322 26.8 18.6322 26.64C18.6322 26.4133 18.5855 26.2467 18.4922 26.14C18.4122 26.0333 18.2855 25.9733 18.1122 25.96L15.1122 25.54C14.1789 25.4067 13.4255 25.1 12.8522 24.62C12.2922 24.14 12.0122 23.34 12.0122 22.22V20.12C12.0122 19.08 12.3189 18.2667 12.9322 17.68C13.5455 17.08 14.3922 16.7333 15.4722 16.64V15.52C15.4722 15.2667 15.5255 15.0867 15.6322 14.98C15.7522 14.86 15.9389 14.8 16.1922 14.8H19.0922C19.3455 14.8 19.5255 14.86 19.6322 14.98C19.7522 15.0867 19.8122 15.2667 19.8122 15.52V16.6H21.7522C22.0055 16.6 22.1855 16.66 22.2922 16.78C22.4122 16.8867 22.4722 17.0667 22.4722 17.32V19.7C22.4722 19.9533 22.4122 20.14 22.2922 20.26C22.1855 20.3667 22.0055 20.42 21.7522 20.42H17.0922C16.9189 20.42 16.7855 20.48 16.6922 20.6C16.5989 20.7067 16.5522 20.8467 16.5522 21.02C16.5522 21.1933 16.5989 21.34 16.6922 21.46C16.7855 21.58 16.9189 21.6467 17.0922 21.66L20.0722 22.06C21.0055 22.1933 21.7589 22.5 22.3322 22.98C22.9055 23.46 23.1922 24.26 23.1922 25.38V27.48C23.1922 28.4933 22.8922 29.3 22.2922 29.9C21.6922 30.5 20.8655 30.8533 19.8122 30.96V32.08C19.8122 32.3333 19.7522 32.5133 19.6322 32.62C19.5255 32.74 19.3455 32.8 19.0922 32.8Z" fill="#FFC701"/>
<path d="M32.1 32.8H29.2C28.9467 32.8 28.76 32.74 28.64 32.62C28.5333 32.5133 28.48 32.3333 28.48 32.08V31H25.74C25.4867 31 25.3 30.9467 25.18 30.84C25.0733 30.72 25.02 30.5333 25.02 30.28V27.94C25.02 27.6867 25.0733 27.5067 25.18 27.4C25.3 27.28 25.4867 27.22 25.74 27.22H31.12C31.2933 27.22 31.42 27.1667 31.5 27.06C31.5933 26.94 31.64 26.8 31.64 26.64C31.64 26.4133 31.5933 26.2467 31.5 26.14C31.42 26.0333 31.2933 25.9733 31.12 25.96L28.12 25.54C27.1867 25.4067 26.4333 25.1 25.86 24.62C25.3 24.14 25.02 23.34 25.02 22.22V20.12C25.02 19.08 25.3267 18.2667 25.94 17.68C26.5533 17.08 27.4 16.7333 28.48 16.64V15.52C28.48 15.2667 28.5333 15.0867 28.64 14.98C28.76 14.86 28.9467 14.8 29.2 14.8H32.1C32.3533 14.8 32.5333 14.86 32.64 14.98C32.76 15.0867 32.82 15.2667 32.82 15.52V16.6H34.76C35.0133 16.6 35.1933 16.66 35.3 16.78C35.42 16.8867 35.48 17.0667 35.48 17.32V19.7C35.48 19.9533 35.42 20.14 35.3 20.26C35.1933 20.3667 35.0133 20.42 34.76 20.42H30.1C29.9267 20.42 29.7933 20.48 29.7 20.6C29.6067 20.7067 29.56 20.8467 29.56 21.02C29.56 21.1933 29.6067 21.34 29.7 21.46C29.7933 21.58 29.9267 21.6467 30.1 21.66L33.08 22.06C34.0133 22.1933 34.7667 22.5 35.34 22.98C35.9133 23.46 36.2 24.26 36.2 25.38V27.48C36.2 28.4933 35.9 29.3 35.3 29.9C34.7 30.5 33.8733 30.8533 32.82 30.96V32.08C32.82 32.3333 32.76 32.5133 32.64 32.62C32.5333 32.74 32.3533 32.8 32.1 32.8Z" fill="#FFC701"/>
</svg>
