<svg width="48" height="48" viewBox="0 0 48 48" fill="none" xmlns="http://www.w3.org/2000/svg">
<rect width="48" height="48" rx="4" fill="#0A2126"/>
<path d="M10.5073 31H4.18727C3.93393 31 3.74727 30.9467 3.62727 30.84C3.5206 30.72 3.46727 30.5333 3.46727 30.28V27.94C3.46727 27.6867 3.5206 27.5067 3.62727 27.4C3.74727 27.28 3.93393 27.22 4.18727 27.22H9.56727C9.7406 27.22 9.86727 27.1667 9.94727 27.06C10.0406 26.94 10.0873 26.8 10.0873 26.64C10.0873 26.4133 10.0406 26.2467 9.94727 26.14C9.86727 26.0333 9.7406 25.9733 9.56727 25.96L6.56727 25.54C5.63393 25.4067 4.8806 25.1 4.30727 24.62C3.74727 24.14 3.46727 23.34 3.46727 22.22V20.12C3.46727 18.9867 3.83393 18.12 4.56727 17.52C5.3006 16.9067 6.31393 16.6 7.60727 16.6H13.2073C13.4606 16.6 13.6406 16.66 13.7473 16.78C13.8673 16.8867 13.9273 17.0667 13.9273 17.32V19.7C13.9273 19.9533 13.8673 20.14 13.7473 20.26C13.6406 20.3667 13.4606 20.42 13.2073 20.42H8.54727C8.37393 20.42 8.2406 20.48 8.14727 20.6C8.05393 20.7067 8.00727 20.8467 8.00727 21.02C8.00727 21.1933 8.05393 21.34 8.14727 21.46C8.2406 21.58 8.37393 21.6467 8.54727 21.66L11.5273 22.06C12.4606 22.1933 13.2139 22.5 13.7873 22.98C14.3606 23.46 14.6473 24.26 14.6473 25.38V27.48C14.6473 28.6133 14.2739 29.4867 13.5273 30.1C12.7939 30.7 11.7873 31 10.5073 31ZM20.6551 31H17.5551C17.3017 31 17.1151 30.9467 16.9951 30.84C16.8884 30.72 16.8351 30.5333 16.8351 30.28V17.32C16.8351 17.0667 16.8884 16.8867 16.9951 16.78C17.1151 16.66 17.3017 16.6 17.5551 16.6H20.6551C20.9084 16.6 21.0884 16.66 21.1951 16.78C21.3151 16.8867 21.3751 17.0667 21.3751 17.32V21.66H24.7151V17.32C24.7151 17.0667 24.7684 16.8867 24.8751 16.78C24.9951 16.66 25.1817 16.6 25.4351 16.6H28.5351C28.7884 16.6 28.9684 16.66 29.0751 16.78C29.1951 16.8867 29.2551 17.0667 29.2551 17.32V30.28C29.2551 30.5333 29.1951 30.72 29.0751 30.84C28.9684 30.9467 28.7884 31 28.5351 31H25.4351C25.1817 31 24.9951 30.9467 24.8751 30.84C24.7684 30.72 24.7151 30.5333 24.7151 30.28V25.84H21.3751V30.28C21.3751 30.5333 21.3151 30.72 21.1951 30.84C21.0884 30.9467 20.9084 31 20.6551 31ZM39.4709 31H32.7309C32.4775 31 32.2909 30.9467 32.1709 30.84C32.0642 30.72 32.0109 30.5333 32.0109 30.28V17.32C32.0109 17.0667 32.0642 16.8867 32.1709 16.78C32.2909 16.66 32.4775 16.6 32.7309 16.6H39.4709C41.1375 16.6 42.3709 16.9333 43.1709 17.6C43.9842 18.2667 44.3909 19.2933 44.3909 20.68V26.92C44.3909 28.3067 43.9842 29.3333 43.1709 30C42.3709 30.6667 41.1375 31 39.4709 31ZM36.5509 20.42V27.22H38.9309C39.2509 27.22 39.4842 27.14 39.6309 26.98C39.7909 26.82 39.8709 26.5733 39.8709 26.24V21.38C39.8709 21.0467 39.7909 20.8067 39.6309 20.66C39.4842 20.5 39.2509 20.42 38.9309 20.42H36.5509Z" fill="#934CEE"/>
</svg>
