<svg width="48" height="48" viewBox="0 0 48 48" fill="none" xmlns="http://www.w3.org/2000/svg">
<rect width="48" height="48" rx="4" fill="#0A2126"/>
<path d="M12.4604 30H6.14039C5.88706 30 5.70039 29.9467 5.58039 29.84C5.47372 29.72 5.42039 29.5333 5.42039 29.28V26.94C5.42039 26.6867 5.47372 26.5067 5.58039 26.4C5.70039 26.28 5.88706 26.22 6.14039 26.22H11.5204C11.6937 26.22 11.8204 26.1667 11.9004 26.06C11.9937 25.94 12.0404 25.8 12.0404 25.64C12.0404 25.4133 11.9937 25.2467 11.9004 25.14C11.8204 25.0333 11.6937 24.9733 11.5204 24.96L8.52039 24.54C7.58706 24.4067 6.83372 24.1 6.26039 23.62C5.70039 23.14 5.42039 22.34 5.42039 21.22V19.12C5.42039 17.9867 5.78706 17.12 6.52039 16.52C7.25372 15.9067 8.26706 15.6 9.56039 15.6H15.1604C15.4137 15.6 15.5937 15.66 15.7004 15.78C15.8204 15.8867 15.8804 16.0667 15.8804 16.32V18.7C15.8804 18.9533 15.8204 19.14 15.7004 19.26C15.5937 19.3667 15.4137 19.42 15.1604 19.42H10.5004C10.3271 19.42 10.1937 19.48 10.1004 19.6C10.0071 19.7067 9.96039 19.8467 9.96039 20.02C9.96039 20.1933 10.0071 20.34 10.1004 20.46C10.1937 20.58 10.3271 20.6467 10.5004 20.66L13.4804 21.06C14.4137 21.1933 15.1671 21.5 15.7404 21.98C16.3137 22.46 16.6004 23.26 16.6004 24.38V26.48C16.6004 27.6133 16.2271 28.4867 15.4804 29.1C14.7471 29.7 13.7404 30 12.4604 30ZM22.6082 30H19.5082C19.2549 30 19.0682 29.9467 18.9482 29.84C18.8415 29.72 18.7882 29.5333 18.7882 29.28V16.32C18.7882 16.0667 18.8415 15.8867 18.9482 15.78C19.0682 15.66 19.2549 15.6 19.5082 15.6H25.6282C27.4415 15.6 28.6815 15.96 29.3482 16.68C30.0149 17.4 30.3482 18.34 30.3482 19.5V22.06C30.3482 23.22 30.0149 24.16 29.3482 24.88C28.6815 25.6 27.4415 25.96 25.6282 25.96H23.3282V29.28C23.3282 29.5333 23.2682 29.72 23.1482 29.84C23.0415 29.9467 22.8615 30 22.6082 30ZM23.2882 19.34V22.36H25.0882C25.4749 22.36 25.7282 22.26 25.8482 22.06C25.9682 21.86 26.0282 21.6333 26.0282 21.38V20.32C26.0282 20.0667 25.9682 19.84 25.8482 19.64C25.7282 19.44 25.4749 19.34 25.0882 19.34H23.2882ZM42.001 30H37.121C35.4543 30 34.2143 29.6667 33.401 29C32.601 28.3333 32.201 27.3067 32.201 25.92V19.7C32.201 18.3133 32.601 17.2867 33.401 16.62C34.2143 15.94 35.4543 15.6 37.121 15.6H42.001C42.2543 15.6 42.4343 15.66 42.541 15.78C42.661 15.8867 42.721 16.0667 42.721 16.32V18.74C42.721 18.9933 42.661 19.18 42.541 19.3C42.4343 19.4067 42.2543 19.46 42.001 19.46H37.981C37.5677 19.46 37.261 19.5467 37.061 19.72C36.861 19.88 36.761 20.1267 36.761 20.46V25.22C36.761 25.5533 36.861 25.8 37.061 25.96C37.261 26.1067 37.5677 26.18 37.981 26.18H42.001C42.2543 26.18 42.4343 26.24 42.541 26.36C42.661 26.4667 42.721 26.6467 42.721 26.9V29.28C42.721 29.5333 42.661 29.72 42.541 29.84C42.4343 29.9467 42.2543 30 42.001 30Z" fill="#FF017B"/>
</svg>
