<svg width="48" height="48" viewBox="0 0 48 48" fill="none" xmlns="http://www.w3.org/2000/svg">
<rect width="48" height="48" rx="4" fill="#0A2126"/>
<path d="M13.5618 16.6H16.5418C16.7951 16.6 16.9751 16.66 17.0818 16.78C17.2018 16.8867 17.2618 17.0667 17.2618 17.32V25.08C17.2618 25.5067 17.2418 25.9067 17.2018 26.28C17.1751 26.64 17.0751 27.0667 16.9018 27.56L15.9018 30.28C15.8351 30.48 15.7351 30.6533 15.6018 30.8C15.4818 30.9333 15.3151 31 15.1018 31H12.4418C12.2285 31 12.0351 30.9533 11.8618 30.86C11.6885 30.7667 11.5751 30.6133 11.5218 30.4L10.6018 27.14C10.5618 27.0067 10.5085 26.92 10.4418 26.88C10.3885 26.8267 10.3218 26.8 10.2418 26.8H10.0618C9.9818 26.8 9.90846 26.8267 9.8418 26.88C9.78846 26.92 9.7418 27.0067 9.7018 27.14L8.7618 30.4C8.70846 30.6 8.60846 30.7533 8.4618 30.86C8.31513 30.9533 8.13513 31 7.9218 31H5.2818C5.06846 31 4.8818 30.9333 4.7218 30.8C4.57513 30.6667 4.46846 30.4933 4.4018 30.28L3.4018 27.52C3.22846 27.0267 3.1218 26.6 3.0818 26.24C3.05513 25.8667 3.0418 25.4667 3.0418 25.04V17.32C3.0418 17.0667 3.09513 16.8867 3.2018 16.78C3.3218 16.66 3.50846 16.6 3.7618 16.6H6.8418C7.09513 16.6 7.27513 16.66 7.3818 16.78C7.5018 16.8867 7.5618 17.0667 7.5618 17.32V24.68L8.7218 22.16C8.82846 21.9333 8.96846 21.7733 9.1418 21.68C9.31513 21.5867 9.52846 21.54 9.7818 21.54H10.6218C10.8751 21.54 11.0885 21.5867 11.2618 21.68C11.4351 21.7733 11.5751 21.9333 11.6818 22.16L12.8418 24.68V17.32C12.8418 17.0667 12.8951 16.8867 13.0018 16.78C13.1218 16.66 13.3085 16.6 13.5618 16.6ZM29.8429 31H20.5629C20.3096 31 20.1229 30.9467 20.0029 30.84C19.8962 30.72 19.8429 30.5333 19.8429 30.28V17.32C19.8429 17.0667 19.8962 16.8867 20.0029 16.78C20.1229 16.66 20.3096 16.6 20.5629 16.6H29.8429C30.0962 16.6 30.2762 16.66 30.3829 16.78C30.5029 16.8867 30.5629 17.0667 30.5629 17.32V19.66C30.5629 19.9133 30.5029 20.1 30.3829 20.22C30.2762 20.3267 30.0962 20.38 29.8429 20.38H24.3229V21.92H28.2229C28.4762 21.92 28.6562 21.98 28.7629 22.1C28.8829 22.2067 28.9429 22.3867 28.9429 22.64V24.78C28.9429 25.0333 28.8829 25.22 28.7629 25.34C28.6562 25.4467 28.4762 25.5 28.2229 25.5H24.3229V27.22H29.8429C30.0962 27.22 30.2762 27.28 30.3829 27.4C30.5029 27.5067 30.5629 27.6867 30.5629 27.94V30.28C30.5629 30.5333 30.5029 30.72 30.3829 30.84C30.2762 30.9467 30.0962 31 29.8429 31ZM38.1488 20.8L37.2088 23.84H40.3488L39.4088 20.8C39.3555 20.68 39.2955 20.5933 39.2288 20.54C39.1755 20.4867 39.1088 20.46 39.0288 20.46H38.5288C38.4488 20.46 38.3755 20.4867 38.3088 20.54C38.2555 20.5933 38.2022 20.68 38.1488 20.8ZM37.0088 30.28C37.0088 30.5333 36.9488 30.72 36.8288 30.84C36.7222 30.9467 36.5422 31 36.2888 31H33.3488C33.0955 31 32.9088 30.9467 32.7888 30.84C32.6822 30.72 32.6288 30.5333 32.6288 30.28V25C32.6288 24.6 32.6888 24.14 32.8088 23.62C32.9422 23.1 33.1422 22.4933 33.4088 21.8L35.1488 17.26C35.2288 17.0333 35.3488 16.8667 35.5088 16.76C35.6822 16.6533 35.9022 16.6 36.1688 16.6H41.5488C41.8022 16.6 42.0088 16.6533 42.1688 16.76C42.3422 16.8667 42.4688 17.0333 42.5488 17.26L44.2888 21.8C44.5555 22.4933 44.7488 23.1 44.8688 23.62C45.0022 24.14 45.0688 24.6 45.0688 25V30.28C45.0688 30.5333 45.0088 30.72 44.8888 30.84C44.7822 30.9467 44.6022 31 44.3488 31H41.3288C41.0622 31 40.8622 30.9467 40.7288 30.84C40.6088 30.72 40.5488 30.5333 40.5488 30.28V27.48H37.0088V30.28Z" fill="#01FF57"/>
</svg>
