<svg width="48" height="48" viewBox="0 0 48 48" fill="none" xmlns="http://www.w3.org/2000/svg">
<rect width="48" height="48" rx="4" fill="#0A2126"/>
<path d="M20.8679 37.668C20.8679 38.1367 20.7569 38.482 20.5349 38.704C20.3375 38.9013 20.0045 39 19.5359 39H13.9119C13.4432 39 13.0979 38.9013 12.8759 38.704C12.6785 38.482 12.5799 38.1367 12.5799 37.668V33.709C12.5799 32.5743 12.6785 31.7233 12.8759 31.156C13.0732 30.5887 13.4432 29.9227 13.9859 29.158L16.9829 25.125L13.9859 21.092C13.4185 20.3273 13.0362 19.6613 12.8389 19.094C12.6662 18.5267 12.5799 17.6757 12.5799 16.541V13.692C12.5799 13.2233 12.6785 12.8903 12.8759 12.693C13.0979 12.471 13.4432 12.36 13.9119 12.36H19.6099C20.0785 12.36 20.4115 12.471 20.6089 12.693C20.8309 12.8903 20.9419 13.2233 20.9419 13.692V16.245C20.9419 16.4917 20.9542 16.7507 20.9789 17.022C21.0035 17.2933 21.1022 17.5523 21.2749 17.799L22.9029 20.13C23.0262 20.3273 23.1495 20.4877 23.2729 20.611C23.4209 20.7097 23.5935 20.759 23.7909 20.759H24.2349C24.4322 20.759 24.5925 20.7097 24.7159 20.611C24.8392 20.4877 24.9749 20.3273 25.1229 20.13L26.7879 17.799C26.9605 17.5523 27.0592 17.2933 27.0839 17.022C27.1085 16.7507 27.1209 16.4917 27.1209 16.245V13.692C27.1209 13.2233 27.2195 12.8903 27.4169 12.693C27.6389 12.471 27.9842 12.36 28.4529 12.36H34.0769C34.5455 12.36 34.8785 12.471 35.0759 12.693C35.2979 12.8903 35.4089 13.2233 35.4089 13.692V16.541C35.4089 17.6757 35.3102 18.5267 35.1129 19.094C34.9155 19.6613 34.5455 20.3273 34.0029 21.092L31.0059 25.162L34.0029 29.158C34.5702 29.9227 34.9402 30.5887 35.1129 31.156C35.3102 31.7233 35.4089 32.5743 35.4089 33.709V37.668C35.4089 38.1367 35.2979 38.482 35.0759 38.704C34.8785 38.9013 34.5455 39 34.0769 39H28.4529C27.9842 39 27.6389 38.9013 27.4169 38.704C27.2195 38.482 27.1209 38.1367 27.1209 37.668V34.005C27.1209 33.7583 27.1085 33.4993 27.0839 33.228C27.0592 32.9567 26.9605 32.6977 26.7879 32.451L25.1599 30.12C25.0119 29.898 24.8762 29.7377 24.7529 29.639C24.6295 29.5403 24.4692 29.491 24.2719 29.491H23.7539C23.5565 29.491 23.3962 29.5403 23.2729 29.639C23.1495 29.7377 23.0139 29.898 22.8659 30.12L21.2009 32.451C21.0282 32.6977 20.9295 32.9567 20.9049 33.228C20.8802 33.4993 20.8679 33.7583 20.8679 34.005V37.668Z" fill="white"/>
</svg>
